<svg xmlns="http://www.w3.org/2000/svg" viewBox="0 0 1920 1920" width="1920" height="1920">
<g transform="translate(0 420)">
<g id="root">
<text id="w-recap-1" transform="translate(120 300)" font-family="Geist" font-weight="800" font-size="124" fill="#FF5A1F" letter-spacing="-3.72">Chunk</text>
<text id="w-recap-4" transform="translate(526.472 300)" font-family="Geist" font-weight="800" font-size="124" fill="#F5F5F5" letter-spacing="-3.72">it</text>
<text id="w-recap-7" transform="translate(120 431.44)" font-family="Geist" font-weight="800" font-size="124" fill="#FF5A1F" letter-spacing="-3.72">Embed</text>
<text id="w-recap-10" transform="translate(549.536 431.44)" font-family="Geist" font-weight="800" font-size="124" fill="#F5F5F5" letter-spacing="-3.72">it</text>
<text id="w-recap-13" transform="translate(120 562.88)" font-family="Geist" font-weight="800" font-size="124" fill="#FF5A1F" letter-spacing="-3.72">Search</text>
<text id="w-recap-16" transform="translate(561.316 562.88)" font-family="Geist" font-weight="800" font-size="124" fill="#F5F5F5" letter-spacing="-3.72">it</text>
<text id="w-recap-19" transform="translate(120 694.32)" font-family="Geist" font-weight="800" font-size="124" fill="#FF5A1F" letter-spacing="-3.72">Stuff</text>
<text id="w-recap-22" transform="translate(444.756 694.32)" font-family="Geist" font-weight="800" font-size="124" fill="#F5F5F5" letter-spacing="-3.72">it</text>
<g id="cell-0" transform="translate(1160 360)"><rect x="-170" y="-150" width="340" height="300" fill="#101013" stroke="rgba(245,245,245,0.22)" stroke-width="2"/><rect x="-90" y="-70" width="180" height="30" fill="none" stroke="#FF5A1F" stroke-width="3"/><line x1="-74" y1="-55" x2="40" y2="-55" fill="none" stroke="#F5F5F5" stroke-width="3"/><rect x="-84" y="-32" width="180" height="30" fill="none" stroke="#FF5A1F" stroke-width="3"/><line x1="-74" y1="-17" x2="60" y2="-17" fill="none" stroke="#F5F5F5" stroke-width="3"/><rect x="-90" y="6" width="180" height="30" fill="none" stroke="#FF5A1F" stroke-width="3"/><line x1="-74" y1="21" x2="40" y2="21" fill="none" stroke="#F5F5F5" stroke-width="3"/><rect x="-84" y="44" width="180" height="30" fill="none" stroke="#FF5A1F" stroke-width="3"/><line x1="-74" y1="59" x2="60" y2="59" fill="none" stroke="#F5F5F5" stroke-width="3"/><text transform="translate(-150 132)" font-family="JetBrains Mono" font-weight="700" font-size="20" fill="#8A8A8E" letter-spacing="2.4">01 / CHUNK</text></g>
<g id="cell-1" transform="translate(1540 360)"><rect x="-170" y="-150" width="340" height="300" fill="#101013" stroke="rgba(245,245,245,0.22)" stroke-width="2"/><circle cx="-70" cy="-40" r="9" fill="#FF5A1F" fill-opacity="1"/><circle cx="-40" cy="-10" r="9" fill="#FF5A1F" fill-opacity="1"/><circle cx="-85" cy="5" r="9" fill="#FF5A1F" fill-opacity="1"/><circle cx="-15" cy="-50" r="9" fill="#FF5A1F" fill-opacity="1"/><circle cx="55" cy="-55" r="9" fill="#F5F5F5" fill-opacity="0.8"/><circle cx="80" cy="-20" r="9" fill="#F5F5F5" fill-opacity="0.8"/><circle cx="35" cy="-25" r="9" fill="#F5F5F5" fill-opacity="0.8"/><circle cx="10" cy="55" r="9" fill="#F5F5F5" fill-opacity="0.8"/><circle cx="55" cy="70" r="9" fill="#F5F5F5" fill-opacity="0.8"/><circle cx="-25" cy="75" r="9" fill="#F5F5F5" fill-opacity="0.8"/><text transform="translate(-150 132)" font-family="JetBrains Mono" font-weight="700" font-size="20" fill="#8A8A8E" letter-spacing="2.4">02 / EMBED</text></g>
<g id="cell-2" transform="translate(1160 700)"><rect x="-170" y="-150" width="340" height="300" fill="#101013" stroke="rgba(245,245,245,0.22)" stroke-width="2"/><circle cx="0" cy="0" r="30" fill="none" stroke="#FF5A1F" stroke-width="3" stroke-opacity="0.85"/><circle cx="0" cy="0" r="62" fill="none" stroke="#FF5A1F" stroke-width="3" stroke-opacity="0.85"/><circle cx="0" cy="0" r="96" fill="none" stroke="#FF5A1F" stroke-width="3" stroke-opacity="0.85"/><circle cx="0" cy="0" r="11" fill="#FF5A1F"/><text transform="translate(-150 132)" font-family="JetBrains Mono" font-weight="700" font-size="20" fill="#8A8A8E" letter-spacing="2.4">03 / SEARCH</text></g>
<g id="cell-3" transform="translate(1540 700)"><rect x="-170" y="-150" width="340" height="300" fill="#101013" stroke="rgba(245,245,245,0.22)" stroke-width="2"/><rect x="-100" y="-80" width="200" height="160" fill="none" stroke="#F5F5F5" stroke-width="3"/><rect x="-80" y="-60" width="160" height="28" fill="#FF5A1F" fill-opacity="0.85"/><rect x="-80" y="-20" width="160" height="28" fill="#FF5A1F" fill-opacity="0.85"/><rect x="-80" y="20" width="160" height="28" fill="#FF5A1F" fill-opacity="0.85"/><text transform="translate(-150 132)" font-family="JetBrains Mono" font-weight="700" font-size="20" fill="#8A8A8E" letter-spacing="2.4">04 / STUFF</text></g>
<text id="w-end-45" transform="translate(462.28 470)" font-family="Geist" font-weight="800" font-size="230" fill="#FF5A1F" letter-spacing="-6.9">Ground</text>
<text id="w-end-48" transform="translate(1303.62 470)" font-family="Geist" font-weight="800" font-size="230" fill="#FF5A1F" letter-spacing="-6.9">it</text>
<text id="w-end-51" transform="translate(509.776 727.6)" font-family="Geist" font-weight="800" font-size="76" fill="#F5F5F5" letter-spacing="-2.28">Then</text>
<text id="w-end-54" transform="translate(700.612 727.6)" font-family="Geist" font-weight="800" font-size="76" fill="#F5F5F5" letter-spacing="-2.28">let</text>
<text id="w-end-57" transform="translate(812.712 727.6)" font-family="Geist" font-weight="800" font-size="76" fill="#F5F5F5" letter-spacing="-2.28">the</text>
<text id="w-end-60" transform="translate(948.068 727.6)" font-family="Geist" font-weight="800" font-size="76" fill="#F5F5F5" letter-spacing="-2.28">model</text>
<text id="w-end-63" transform="translate(1186.556 727.6)" font-family="Geist" font-weight="800" font-size="76" fill="#F5F5F5" letter-spacing="-2.28">speak</text>
<line id="end-rule" x1="330" y1="560" x2="1590" y2="560" fill="none" stroke="#FF5A1F" stroke-width="4"/>
<text id="end-tag" transform="translate(960 830)" font-family="JetBrains Mono" font-weight="700" font-size="24" fill="#8A8A8E" text-anchor="middle" letter-spacing="4.8">RETRIEVE  /  AUGMENT  /  GENERATE</text>
</g>
</g>
</svg>
