<svg xmlns="http://www.w3.org/2000/svg" viewBox="-300 -200 600 400" preserveAspectRatio="xMidYMid meet">
<g id="chip">
<rect x="-72" y="-118" width="8" height="18" fill="rgba(245,245,245,0.35)"/><rect x="-72" y="100" width="8" height="18" fill="rgba(245,245,245,0.35)"/><rect x="-48" y="-118" width="8" height="18" fill="rgba(245,245,245,0.35)"/><rect x="-48" y="100" width="8" height="18" fill="rgba(245,245,245,0.35)"/><rect x="-24" y="-118" width="8" height="18" fill="rgba(245,245,245,0.35)"/><rect x="-24" y="100" width="8" height="18" fill="rgba(245,245,245,0.35)"/><rect x="0" y="-118" width="8" height="18" fill="rgba(245,245,245,0.35)"/><rect x="0" y="100" width="8" height="18" fill="rgba(245,245,245,0.35)"/><rect x="24" y="-118" width="8" height="18" fill="rgba(245,245,245,0.35)"/><rect x="24" y="100" width="8" height="18" fill="rgba(245,245,245,0.35)"/><rect x="48" y="-118" width="8" height="18" fill="rgba(245,245,245,0.35)"/><rect x="48" y="100" width="8" height="18" fill="rgba(245,245,245,0.35)"/><rect x="72" y="-118" width="8" height="18" fill="rgba(245,245,245,0.35)"/><rect x="72" y="100" width="8" height="18" fill="rgba(245,245,245,0.35)"/>
<rect id="chip-body" x="-100" y="-100" width="200" height="200" rx="16" fill="#101013" stroke="rgba(245,245,245,0.45)" stroke-width="2"/>
<rect x="-54" y="-54" width="30" height="30" rx="4" fill="rgba(245,245,245,0.12)"/><rect x="-16" y="-54" width="30" height="30" rx="4" fill="rgba(245,245,245,0.12)"/><rect x="22" y="-54" width="30" height="30" rx="4" fill="rgba(245,245,245,0.12)"/><rect x="-54" y="-16" width="30" height="30" rx="4" fill="rgba(245,245,245,0.12)"/><rect x="-16" y="-16" width="30" height="30" rx="4" fill="rgba(245,245,245,0.12)"/><rect x="22" y="-16" width="30" height="30" rx="4" fill="rgba(245,245,245,0.12)"/><rect x="-54" y="22" width="30" height="30" rx="4" fill="rgba(245,245,245,0.12)"/><rect x="-16" y="22" width="30" height="30" rx="4" fill="rgba(245,245,245,0.12)"/><rect x="22" y="22" width="30" height="30" rx="4" fill="rgba(245,245,245,0.12)"/>
<rect id="chip-busy" x="-60" y="-60" width="120" height="120" rx="8" fill="none" stroke="#635BFF" stroke-width="4" pathLength="1"/>
<circle id="chip-lamp" cx="76" cy="-76" r="9" fill="#635BFF"/>
<text id="chip-label" x="0" y="160" font-family="JetBrains Mono" font-size="16" font-weight="500" fill="#8A8A8E" text-anchor="middle">LARGE MODEL ON THE ACCELERATOR</text>
</g>
</svg>
