<svg xmlns="http://www.w3.org/2000/svg" viewBox="0 0 400 600" width="400" height="600">
  <rect width="100%" height="100%" fill="#0A0A0B" />
  <g id="legs" transform="rotate(0 200 390)">
    <path d="M160 380 L150 495 L125 520 L165 520 L180 485 L185 380 Z" fill="#0A0A0B" stroke="#F5F5F5" stroke-width="4" stroke-linecap="round" stroke-linejoin="round" />
    <path d="M240 380 L250 495 L275 520 L235 520 L220 485 L215 380 Z" fill="#0A0A0B" stroke="#F5F5F5" stroke-width="4" stroke-linecap="round" stroke-linejoin="round" />
    <path d="M120 520 L170 520 L170 532 L120 532 Z" fill="#101013" stroke="#F5F5F5" stroke-width="2" stroke-linecap="round" stroke-linejoin="round" />
    <path d="M230 520 L280 520 L280 532 L230 532 Z" fill="#101013" stroke="#F5F5F5" stroke-width="2" stroke-linecap="round" stroke-linejoin="round" />
    <path d="M135 524 L155 524" fill="none" stroke="#635BFF" stroke-width="2" stroke-linecap="round" stroke-linejoin="round" />
    <path d="M245 524 L265 524" fill="none" stroke="#635BFF" stroke-width="2" stroke-linecap="round" stroke-linejoin="round" />
  </g>
  <g id="torso" transform="rotate(0 200 310)">
    <path d="M135 210 Q200 195 265 210 L275 375 Q200 395 125 375 Z" fill="#101013" stroke="#F5F5F5" stroke-width="4" stroke-linecap="round" stroke-linejoin="round" />
    <path d="M150 310 Q200 300 250 310 L240 365 Q200 375 160 365 Z" fill="#0A0A0B" stroke="rgba(245,245,245,0.1)" stroke-width="2" stroke-linecap="round" stroke-linejoin="round" />
    <path d="M160 250 L170 260 L160 270" fill="none" stroke="#635BFF" stroke-width="3" stroke-linecap="round" stroke-linejoin="round" />
    <path d="M175 270 L190 270" fill="none" stroke="#635BFF" stroke-width="3" stroke-linecap="round" stroke-linejoin="round" />
    <path d="M150 200 Q200 230 250 200" fill="none" stroke="#F5F5F5" stroke-width="6" stroke-linecap="round" stroke-linejoin="round" />
    <path d="M140 185 A 12 16 0 1 0 164 185 A 12 16 0 1 0 140 185 Z" fill="#635BFF" stroke="#F5F5F5" stroke-width="3" stroke-linecap="round" stroke-linejoin="round" />
    <path d="M236 185 A 12 16 0 1 0 260 185 A 12 16 0 1 0 236 185 Z" fill="#635BFF" stroke="#F5F5F5" stroke-width="3" stroke-linecap="round" stroke-linejoin="round" />
  </g>
  <g id="head" transform="rotate(0 200 155)">
    <path d="M145 130 Q200 75 255 130 L255 150 Q200 135 145 150 Z" fill="#0A0A0B" stroke="#F5F5F5" stroke-width="4" stroke-linecap="round" stroke-linejoin="round" />
    <path d="M165 140 L175 140 L175 152 L165 152 Z" fill="#635BFF" stroke="none" stroke-width="2" stroke-linecap="round" stroke-linejoin="round" />
    <path d="M155 135 Q200 130 245 135 L240 185 Q200 205 160 185 Z" fill="#101013" stroke="#F5F5F5" stroke-width="3" stroke-linecap="round" stroke-linejoin="round" />
    <path d="M175 148 A 3 3 0 1 0 181 148 A 3 3 0 1 0 175 148 Z" fill="#F5F5F5" stroke="none" stroke-width="2" stroke-linecap="round" stroke-linejoin="round" />
    <path d="M219 148 A 3 3 0 1 0 225 148 A 3 3 0 1 0 219 148 Z" fill="#F5F5F5" stroke="none" stroke-width="2" stroke-linecap="round" stroke-linejoin="round" />
    <path d="M188 172 Q200 179 212 172" fill="none" stroke="#F5F5F5" stroke-width="3" stroke-linecap="round" stroke-linejoin="round" />
  </g>
  <g id="leftArm" transform="rotate(0 130 215)">
    <path d="M135 210 L90 295 L118 305 L155 225 Z" fill="#101013" stroke="#F5F5F5" stroke-width="4" stroke-linecap="round" stroke-linejoin="round" />
    <path d="M90 295 L70 370 L95 375 L115 300 Z" fill="#101013" stroke="#F5F5F5" stroke-width="4" stroke-linecap="round" stroke-linejoin="round" />
    <path d="M65 370 Q55 390 75 395 Q85 385 90 370 Z" fill="#8A8A8E" stroke="#F5F5F5" stroke-width="2" stroke-linecap="round" stroke-linejoin="round" />
  </g>
  <g id="rightArm" transform="rotate(0 270 215)">
    <path d="M265 210 L310 295 L282 305 L245 225 Z" fill="#101013" stroke="#F5F5F5" stroke-width="4" stroke-linecap="round" stroke-linejoin="round" />
    <path d="M310 295 L330 370 L305 375 L285 300 Z" fill="#101013" stroke="#F5F5F5" stroke-width="4" stroke-linecap="round" stroke-linejoin="round" />
    <path d="M335 370 Q345 390 325 395 Q315 385 310 370 Z" fill="#8A8A8E" stroke="#F5F5F5" stroke-width="2" stroke-linecap="round" stroke-linejoin="round" />
  </g>
</svg>